PathFileType	4	(X/Y/Z)	C:/Users/opensim2020/Desktop/walking_exp_matlab/subject02_walking07_straight_01.trc	
DataRate	CameraRate	NumFrames	NumMarkers	Units	OrigDataRate	OrigDataStartFrame	OrigNumFrames	
100.00	100.00	5	50	mm	100.00	692	176	
Frame#	Time	LFHD			RFHD			LBHD			RBHD			C7			T10			CLAV			STRN			RBAK			LSHO			LUPA			LELB			LFRM			LWRA			LWRB			LFIN			RSHO			RUPA			RELB			RFRM			RWRA			RWRB			RFIN			LASI			RASI			LPSI			RPSI			LTHI			LKNE			LTIB			LANK			LHEE			LTOE			RTHI			RKNE			RTIB			RANK			RHEE			RTOE			*39			*40			*41			*42			*43			*44			*45			*46			*47			*48			*49			
		X1	Y1	Z1	X2	Y2	Z2	X3	Y3	Z3	X4	Y4	Z4	X5	Y5	Z5	X6	Y6	Z6	X7	Y7	Z7	X8	Y8	Z8	X9	Y9	Z9	X10	Y10	Z10	X11	Y11	Z11	X12	Y12	Z12	X13	Y13	Z13	X14	Y14	Z14	X15	Y15	Z15	X16	Y16	Z16	X17	Y17	Z17	X18	Y18	Z18	X19	Y19	Z19	X20	Y20	Z20	X21	Y21	Z21	X22	Y22	Z22	X23	Y23	Z23	X24	Y24	Z24	X25	Y25	Z25	X26	Y26	Z26	X27	Y27	Z27	X28	Y28	Z28	X29	Y29	Z29	X30	Y30	Z30	X31	Y31	Z31	X32	Y32	Z32	X33	Y33	Z33	X34	Y34	Z34	X35	Y35	Z35	X36	Y36	Z36	X37	Y37	Z37	X38	Y38	Z38	X39	Y39	Z39	X40	Y40	Z40	X41	Y41	Z41	X42	Y42	Z42	X43	Y43	Z43	X44	Y44	Z44	X45	Y45	Z45	X46	Y46	Z46	X47	Y47	Z47	X48	Y48	Z48	X49	Y49	Z49	X50	Y50	Z50	

45	0.440	1423.01233	-573.22009	1746.46619	1566.29749	-573.11566	1728.48340	1413.78479	-696.16101	1660.83215	1555.37964	-709.10693	1640.66943	1495.20752	-745.47577	1527.50916	1509.30261	-811.52155	1257.05811	1470.33191	-610.77478	1454.91614	1482.52246	-567.35046	1279.84692	1573.49304	-803.35175	1362.09216	1310.24146	-698.35809	1496.19287	1235.10010	-770.23761	1311.05835	1226.75854	-816.48871	1180.08179	1203.48254	-860.83032	1059.23853	1200.97754	-850.91852	918.78876	1189.22791	-901.14746	942.77344	1175.89722	-910.22076	877.24200	1670.56018	-645.23511	1499.34729	1769.89319	-639.64783	1314.27649	1792.59412	-597.75165	1172.05188	1803.08948	-538.41980	1066.19202	1772.44299	-464.83148	955.86261	1813.78345	-501.48679	941.61511	1809.07690	-447.94830	893.04895	1365.34460	-594.15875	989.05304	1620.59265	-594.24835	970.10339	1446.70764	-801.89380	1036.50793	1561.99451	-804.55463	1036.74963	1293.01184	-594.92108	688.28851	1323.45325	-564.97809	492.91910	1341.14502	-618.85797	308.12659	1372.31116	-605.93018	85.22140	1432.27063	-625.25989	58.21975	1325.64978	-463.77585	48.23655	1670.66943	-692.24805	666.59314	1625.12549	-714.89874	457.82117	1626.46497	-775.05994	278.36911	1582.05652	-812.18317	89.08780	1525.71594	-850.42700	35.67467	1599.80322	-663.47089	32.94341	1511.85364	-680.56213	1803.51379	-3360.37012	2845.17822	1033.91382																											 
46	0.450	1422.32349	-564.63202	1745.41028	1565.54590	-564.44702	1727.73914	1413.36841	-687.76648	1659.76355	1555.04150	-700.38739	1639.92041	1495.12952	-736.94318	1526.65845	1508.95251	-803.41766	1256.35632	1470.31299	-602.21442	1453.95374	1482.86804	-558.99768	1278.81714	1573.20959	-794.26007	1361.05554	1310.23474	-690.11267	1495.10608	1235.01038	-763.86395	1310.68201	1227.29541	-809.99072	1179.70166	1204.08594	-855.29236	1059.34534	1200.13147	-845.70978	918.98621	1189.76440	-896.31329	943.04175	1176.16968	-905.92865	877.58569	1670.32166	-636.57666	1498.91675	1769.89465	-629.23163	1314.11169	1792.91089	-585.37872	1172.40967	1803.14246	-524.16888	1067.49841	1771.70361	-449.09683	958.33630	1813.25012	-485.22339	943.53149	1808.19519	-430.98331	895.87891	1365.53796	-585.08447	987.94989	1621.09277	-586.82117	969.42773	1446.28052	-793.69354	1035.74512	1561.39771	-796.92096	1035.87268	1293.56824	-585.49420	687.45886	1324.40479	-554.46698	491.44873	1339.87048	-599.63275	303.72763	1370.10645	-577.34570	81.79366	1430.25635	-595.50946	53.58173	1325.04614	-433.01587	50.77909	1670.62244	-687.28876	666.04211	1625.23328	-711.16742	457.35849	1626.19885	-773.29230	278.44940	1581.73035	-811.81201	89.45226	1525.26794	-850.16211	36.07197	1600.10303	-663.57892	32.88699	1511.03821	-671.91156	1802.52869	-3360.19409	2845.08472	1034.05481																											 
47	0.460	1421.39392	-556.15155	1744.23755	1564.75635	-555.74048	1726.96240	1412.89307	-679.16077	1658.56873	1554.61035	-691.69476	1639.03455	1494.93884	-728.37311	1525.70300	1508.45459	-795.26300	1255.59180	1470.09778	-593.61749	1452.89502	1483.13672	-550.57361	1277.75256	1573.16479	-785.90845	1360.34644	1310.08704	-681.70837	1493.87317	1235.45129	-755.99487	1309.87976	1227.75293	-803.02673	1179.23279	1204.48193	-849.14319	1059.26624	1199.15710	-840.43439	918.82916	1190.33899	-890.81055	943.12463	1176.27246	-901.00690	877.77625	1669.94202	-627.88226	1498.28137	1769.76318	-618.92987	1313.83740	1793.09534	-573.18805	1172.65894	1802.54883	-510.45114	1068.59692	1770.58545	-433.83890	960.77051	1812.50684	-469.35037	945.30371	1807.12769	-414.37180	898.59631	1365.61951	-576.05963	986.45154	1621.48364	-579.28827	968.71753	1445.35486	-784.32489	1034.42114	1560.54724	-789.21167	1034.96228	1293.89685	-576.46912	686.14844	1325.38135	-543.95648	489.91873	1338.29993	-580.63184	300.08786	1367.67432	-548.98785	79.04980	1427.30872	-567.48846	50.08397	1324.66968	-402.70221	54.03593	1670.47656	-682.13995	665.37079	1625.20422	-707.60095	456.98318	1625.92151	-771.42804	278.56882	1581.41492	-811.39960	89.81833	1524.89587	-850.12592	36.84834	1600.31628	-663.48621	32.87271	1510.28064	-663.31494	1801.75635	-3360.26416	2845.18042	1033.98047																											 
48	0.470	1420.47375	-547.62238	1742.99585	1563.91602	-547.00079	1726.03503	1412.30371	-670.59778	1657.26001	1554.11511	-682.94629	1638.02563	1494.63245	-719.70178	1524.61902	1507.90393	-787.09448	1254.70410	1469.87158	-584.89716	1451.78979	1483.16833	-542.09387	1276.56970	1572.94617	-777.44141	1359.50391	1309.90503	-673.27911	1492.65051	1235.68335	-748.16589	1308.70654	1228.00281	-795.81439	1178.55652	1204.63965	-842.83875	1058.88403	1198.34497	-834.27228	918.39063	1190.52783	-885.06683	942.95959	1176.42407	-895.70734	877.80389	1669.55286	-618.96558	1497.49280	1769.50586	-608.62158	1313.43689	1793.15100	-561.24823	1172.74548	1802.10400	-496.88223	1069.57910	1769.53406	-418.71274	963.12677	1811.60901	-453.72577	946.99561	1805.91553	-397.97403	901.24939	1365.73425	-566.94904	985.05475	1621.86951	-571.68878	967.95844	1444.53589	-775.68732	1033.26453	1559.57056	-781.51367	1033.86841	1293.96094	-567.98541	684.83942	1326.42993	-533.49725	488.44269	1336.66296	-561.58215	296.91647	1364.81921	-521.27332	77.12020	1423.93152	-539.59814	47.21160	1324.42676	-373.05142	58.03963	1670.42017	-677.02368	664.84943	1624.92261	-703.93188	456.06393	1625.77283	-769.57251	278.74448	1581.14539	-810.92877	90.21083	1524.31763	-849.82813	36.94713	1600.40210	-663.49615	32.76544	1509.33069	-654.68585	1800.67529	-3360.18311	2845.17700	1033.79749																											 
49	0.480	1419.48352	-538.97009	1741.62903	1562.96948	-538.26135	1725.00122	1411.64490	-661.91614	1655.86792	1553.46252	-674.17004	1636.93506	1494.22693	-711.03906	1523.45508	1507.16345	-778.68634	1253.58740	1469.45642	-576.19299	1450.52112	1483.18872	-533.51038	1275.35229	1572.33777	-768.97247	1358.34180	1309.55444	-664.64697	1491.23157	1235.50769	-740.56024	1308.09058	1227.97986	-788.32019	1177.61865	1204.43555	-836.21783	1058.34094	1197.41370	-828.37817	918.14001	1190.67346	-878.60980	942.47284	1176.33154	-889.89990	877.39716	1669.11340	-610.19110	1496.54236	1769.21057	-598.46069	1312.90063	1793.14099	-549.53772	1172.63477	1801.53308	-483.49521	1070.44104	1768.45618	-403.72498	965.32715	1810.58118	-438.42526	948.59253	1804.46899	-382.15588	903.69159	1365.84863	-557.72394	983.62714	1622.22156	-564.02820	967.05444	1443.55005	-766.85059	1031.91809	1558.35999	-773.60870	1032.62756	1294.45435	-559.01416	683.13940	1327.24915	-523.00861	487.19492	1335.07617	-543.31995	294.66092	1361.95557	-493.99683	76.03503	1420.32861	-512.22589	44.81935	1324.35266	-344.36469	62.65922	1670.36743	-671.82727	664.18750	1625.04224	-700.01978	455.82703	1625.61462	-767.59137	278.88754	1580.91711	-810.53778	90.66196	1524.06201	-849.51563	37.65536	1600.56738	-663.51709	32.72250	1508.34790	-645.99786	1799.39941	-3360.26270	2845.18091	1034.07385																											 
